<mxfile host="app.diagrams.net" modified="2023-05-31T05:25:37.300Z" agent="Mozilla/5.0 (Windows NT 10.0; Win64; x64) AppleWebKit/537.36 (KHTML, like Gecko) Chrome/112.0.0.0 Safari/537.36" etag="VaFSBgpLOOVsCoCKLmRa" version="21.3.6" type="device">
  <diagram id="C5RBs43oDa-KdzZeNtuy" name="Page-1">
    <mxGraphModel dx="1338" dy="698" grid="1" gridSize="10" guides="1" tooltips="1" connect="1" arrows="1" fold="1" page="1" pageScale="1" pageWidth="1169" pageHeight="827" math="0" shadow="0">
      <root>
        <mxCell id="WIyWlLk6GJQsqaUBKTNV-0" />
        <mxCell id="WIyWlLk6GJQsqaUBKTNV-1" parent="WIyWlLk6GJQsqaUBKTNV-0" />
        <mxCell id="qvAtofTQXbf3-N8AIccu-28" style="edgeStyle=orthogonalEdgeStyle;rounded=0;orthogonalLoop=1;jettySize=auto;html=1;entryX=1;entryY=0.5;entryDx=0;entryDy=0;" parent="WIyWlLk6GJQsqaUBKTNV-1" source="qvAtofTQXbf3-N8AIccu-25" edge="1">
          <mxGeometry relative="1" as="geometry">
            <mxPoint x="829.9999999999998" y="290" as="targetPoint" />
            <Array as="points">
              <mxPoint x="930" y="530" />
              <mxPoint x="930" y="290" />
            </Array>
          </mxGeometry>
        </mxCell>
        <mxCell id="h_rzVPMUoWVvJmKpIRI7-76" style="edgeStyle=orthogonalEdgeStyle;rounded=0;orthogonalLoop=1;jettySize=auto;html=1;" edge="1" parent="WIyWlLk6GJQsqaUBKTNV-1" source="h_rzVPMUoWVvJmKpIRI7-77">
          <mxGeometry relative="1" as="geometry">
            <mxPoint x="584" y="170" as="targetPoint" />
          </mxGeometry>
        </mxCell>
        <mxCell id="h_rzVPMUoWVvJmKpIRI7-77" value="ログイン" style="rounded=1;whiteSpace=wrap;html=1;fontSize=12;glass=0;strokeWidth=1;shadow=0;" vertex="1" parent="WIyWlLk6GJQsqaUBKTNV-1">
          <mxGeometry x="524" y="80" width="120" height="40" as="geometry" />
        </mxCell>
        <mxCell id="h_rzVPMUoWVvJmKpIRI7-78" style="edgeStyle=orthogonalEdgeStyle;rounded=0;orthogonalLoop=1;jettySize=auto;html=1;" edge="1" parent="WIyWlLk6GJQsqaUBKTNV-1" source="h_rzVPMUoWVvJmKpIRI7-79">
          <mxGeometry relative="1" as="geometry">
            <mxPoint x="770" y="270" as="targetPoint" />
          </mxGeometry>
        </mxCell>
        <mxCell id="h_rzVPMUoWVvJmKpIRI7-115" style="edgeStyle=orthogonalEdgeStyle;rounded=0;orthogonalLoop=1;jettySize=auto;html=1;" edge="1" parent="WIyWlLk6GJQsqaUBKTNV-1" source="h_rzVPMUoWVvJmKpIRI7-79">
          <mxGeometry relative="1" as="geometry">
            <mxPoint x="583.9999999999998" y="480" as="targetPoint" />
          </mxGeometry>
        </mxCell>
        <mxCell id="h_rzVPMUoWVvJmKpIRI7-79" value="本の一覧" style="rounded=1;whiteSpace=wrap;html=1;fontSize=12;glass=0;strokeWidth=1;shadow=0;" vertex="1" parent="WIyWlLk6GJQsqaUBKTNV-1">
          <mxGeometry x="524" y="170" width="120" height="40" as="geometry" />
        </mxCell>
        <mxCell id="h_rzVPMUoWVvJmKpIRI7-80" value="本の詳細" style="rounded=1;whiteSpace=wrap;html=1;fontSize=12;glass=0;strokeWidth=1;shadow=0;" vertex="1" parent="WIyWlLk6GJQsqaUBKTNV-1">
          <mxGeometry x="160" y="230" width="120" height="40" as="geometry" />
        </mxCell>
        <mxCell id="h_rzVPMUoWVvJmKpIRI7-81" style="edgeStyle=orthogonalEdgeStyle;rounded=0;orthogonalLoop=1;jettySize=auto;html=1;entryX=0.5;entryY=0;entryDx=0;entryDy=0;" edge="1" parent="WIyWlLk6GJQsqaUBKTNV-1" source="h_rzVPMUoWVvJmKpIRI7-82" target="h_rzVPMUoWVvJmKpIRI7-107">
          <mxGeometry relative="1" as="geometry" />
        </mxCell>
        <mxCell id="h_rzVPMUoWVvJmKpIRI7-82" value="本の追加" style="rounded=1;whiteSpace=wrap;html=1;fontSize=12;glass=0;strokeWidth=1;shadow=0;" vertex="1" parent="WIyWlLk6GJQsqaUBKTNV-1">
          <mxGeometry x="711" y="230" width="120" height="40" as="geometry" />
        </mxCell>
        <mxCell id="h_rzVPMUoWVvJmKpIRI7-83" value="ログインID&lt;br&gt;パスワード" style="text;html=1;align=center;verticalAlign=middle;resizable=0;points=[];autosize=1;strokeColor=none;fillColor=none;" vertex="1" parent="WIyWlLk6GJQsqaUBKTNV-1">
          <mxGeometry x="600" y="123" width="80" height="40" as="geometry" />
        </mxCell>
        <mxCell id="h_rzVPMUoWVvJmKpIRI7-84" value="追加を選択" style="text;html=1;align=center;verticalAlign=middle;resizable=0;points=[];autosize=1;strokeColor=none;fillColor=none;" vertex="1" parent="WIyWlLk6GJQsqaUBKTNV-1">
          <mxGeometry x="700" y="160" width="80" height="30" as="geometry" />
        </mxCell>
        <mxCell id="h_rzVPMUoWVvJmKpIRI7-85" value="&lt;h1&gt;図書管理システム状態遷移図（管理者）&lt;/h1&gt;&lt;div&gt;最終更新日：2023年5月31日（水）&lt;/div&gt;&lt;div&gt;最終更新者：大野　俊輔&lt;/div&gt;&lt;div&gt;更新内容：新規作成&lt;/div&gt;&lt;div&gt;&lt;span style=&quot;white-space: pre;&quot;&gt;&#x9;&lt;/span&gt;&lt;span style=&quot;white-space: pre;&quot;&gt;&#x9;&lt;/span&gt;バカをやらかしたため、閲覧者が消えました（泣）でも復旧させたのえらい！！&lt;br&gt;&lt;/div&gt;" style="text;html=1;strokeColor=none;fillColor=none;spacing=5;spacingTop=-20;whiteSpace=wrap;overflow=hidden;rounded=0;" vertex="1" parent="WIyWlLk6GJQsqaUBKTNV-1">
          <mxGeometry x="22" y="679" width="689" height="120" as="geometry" />
        </mxCell>
        <mxCell id="h_rzVPMUoWVvJmKpIRI7-86" value="" style="endArrow=classic;html=1;rounded=0;exitX=0.5;exitY=1;exitDx=0;exitDy=0;" edge="1" parent="WIyWlLk6GJQsqaUBKTNV-1" source="h_rzVPMUoWVvJmKpIRI7-80">
          <mxGeometry width="50" height="50" relative="1" as="geometry">
            <mxPoint x="120" y="430" as="sourcePoint" />
            <mxPoint x="220" y="310" as="targetPoint" />
          </mxGeometry>
        </mxCell>
        <mxCell id="h_rzVPMUoWVvJmKpIRI7-87" value="編集" style="text;html=1;align=center;verticalAlign=middle;resizable=0;points=[];autosize=1;strokeColor=none;fillColor=none;" vertex="1" parent="WIyWlLk6GJQsqaUBKTNV-1">
          <mxGeometry x="220" y="275" width="50" height="30" as="geometry" />
        </mxCell>
        <mxCell id="h_rzVPMUoWVvJmKpIRI7-88" value="編集画面" style="rounded=1;whiteSpace=wrap;html=1;fontSize=12;glass=0;strokeWidth=1;shadow=0;" vertex="1" parent="WIyWlLk6GJQsqaUBKTNV-1">
          <mxGeometry x="160" y="310" width="120" height="40" as="geometry" />
        </mxCell>
        <mxCell id="h_rzVPMUoWVvJmKpIRI7-89" value="" style="endArrow=classic;html=1;rounded=0;exitX=0.5;exitY=1;exitDx=0;exitDy=0;" edge="1" parent="WIyWlLk6GJQsqaUBKTNV-1" source="h_rzVPMUoWVvJmKpIRI7-88">
          <mxGeometry width="50" height="50" relative="1" as="geometry">
            <mxPoint x="120" y="430" as="sourcePoint" />
            <mxPoint x="220" y="390" as="targetPoint" />
          </mxGeometry>
        </mxCell>
        <mxCell id="h_rzVPMUoWVvJmKpIRI7-90" value="編集内容を保存？" style="rounded=1;whiteSpace=wrap;html=1;fontSize=12;glass=0;strokeWidth=1;shadow=0;" vertex="1" parent="WIyWlLk6GJQsqaUBKTNV-1">
          <mxGeometry x="160" y="390" width="120" height="40" as="geometry" />
        </mxCell>
        <mxCell id="h_rzVPMUoWVvJmKpIRI7-91" value="" style="endArrow=classic;html=1;rounded=0;exitX=0;exitY=0.5;exitDx=0;exitDy=0;entryX=0;entryY=0.5;entryDx=0;entryDy=0;" edge="1" parent="WIyWlLk6GJQsqaUBKTNV-1" source="h_rzVPMUoWVvJmKpIRI7-90" target="h_rzVPMUoWVvJmKpIRI7-80">
          <mxGeometry width="50" height="50" relative="1" as="geometry">
            <mxPoint x="120" y="430" as="sourcePoint" />
            <mxPoint x="170" y="380" as="targetPoint" />
            <Array as="points">
              <mxPoint x="90" y="410" />
              <mxPoint x="90" y="330" />
              <mxPoint x="90" y="250" />
            </Array>
          </mxGeometry>
        </mxCell>
        <mxCell id="h_rzVPMUoWVvJmKpIRI7-92" value="いいえ" style="text;html=1;align=center;verticalAlign=middle;resizable=0;points=[];autosize=1;strokeColor=none;fillColor=none;" vertex="1" parent="WIyWlLk6GJQsqaUBKTNV-1">
          <mxGeometry x="100" y="384" width="60" height="30" as="geometry" />
        </mxCell>
        <mxCell id="h_rzVPMUoWVvJmKpIRI7-93" value="" style="endArrow=classic;html=1;rounded=0;exitX=0.5;exitY=1;exitDx=0;exitDy=0;" edge="1" parent="WIyWlLk6GJQsqaUBKTNV-1" source="h_rzVPMUoWVvJmKpIRI7-90">
          <mxGeometry width="50" height="50" relative="1" as="geometry">
            <mxPoint x="120" y="430" as="sourcePoint" />
            <mxPoint x="220" y="470" as="targetPoint" />
          </mxGeometry>
        </mxCell>
        <mxCell id="h_rzVPMUoWVvJmKpIRI7-94" value="保存処理" style="rounded=1;whiteSpace=wrap;html=1;fontSize=12;glass=0;strokeWidth=1;shadow=0;" vertex="1" parent="WIyWlLk6GJQsqaUBKTNV-1">
          <mxGeometry x="160" y="470" width="120" height="40" as="geometry" />
        </mxCell>
        <mxCell id="h_rzVPMUoWVvJmKpIRI7-95" value="" style="endArrow=classic;html=1;rounded=0;exitX=1;exitY=0.75;exitDx=0;exitDy=0;" edge="1" parent="WIyWlLk6GJQsqaUBKTNV-1" source="h_rzVPMUoWVvJmKpIRI7-80">
          <mxGeometry width="50" height="50" relative="1" as="geometry">
            <mxPoint x="410" y="430" as="sourcePoint" />
            <mxPoint x="370" y="310" as="targetPoint" />
            <Array as="points">
              <mxPoint x="370" y="260" />
            </Array>
          </mxGeometry>
        </mxCell>
        <mxCell id="h_rzVPMUoWVvJmKpIRI7-96" style="edgeStyle=orthogonalEdgeStyle;rounded=0;orthogonalLoop=1;jettySize=auto;html=1;entryX=0.5;entryY=0;entryDx=0;entryDy=0;" edge="1" parent="WIyWlLk6GJQsqaUBKTNV-1" source="h_rzVPMUoWVvJmKpIRI7-97" target="h_rzVPMUoWVvJmKpIRI7-101">
          <mxGeometry relative="1" as="geometry" />
        </mxCell>
        <mxCell id="h_rzVPMUoWVvJmKpIRI7-97" value="削除？" style="rounded=1;whiteSpace=wrap;html=1;fontSize=12;glass=0;strokeWidth=1;shadow=0;" vertex="1" parent="WIyWlLk6GJQsqaUBKTNV-1">
          <mxGeometry x="310" y="310" width="120" height="40" as="geometry" />
        </mxCell>
        <mxCell id="h_rzVPMUoWVvJmKpIRI7-98" value="" style="endArrow=none;html=1;rounded=0;exitX=0;exitY=0.5;exitDx=0;exitDy=0;" edge="1" parent="WIyWlLk6GJQsqaUBKTNV-1" source="h_rzVPMUoWVvJmKpIRI7-94">
          <mxGeometry width="50" height="50" relative="1" as="geometry">
            <mxPoint x="410" y="430" as="sourcePoint" />
            <mxPoint x="90" y="410" as="targetPoint" />
            <Array as="points">
              <mxPoint x="90" y="490" />
            </Array>
          </mxGeometry>
        </mxCell>
        <mxCell id="h_rzVPMUoWVvJmKpIRI7-99" value="" style="endArrow=classic;html=1;rounded=0;exitX=0;exitY=0.5;exitDx=0;exitDy=0;entryX=0.5;entryY=0;entryDx=0;entryDy=0;" edge="1" parent="WIyWlLk6GJQsqaUBKTNV-1" source="h_rzVPMUoWVvJmKpIRI7-79" target="h_rzVPMUoWVvJmKpIRI7-80">
          <mxGeometry width="50" height="50" relative="1" as="geometry">
            <mxPoint x="520" y="430" as="sourcePoint" />
            <mxPoint x="570" y="380" as="targetPoint" />
            <Array as="points">
              <mxPoint x="220" y="190" />
            </Array>
          </mxGeometry>
        </mxCell>
        <mxCell id="h_rzVPMUoWVvJmKpIRI7-100" style="edgeStyle=orthogonalEdgeStyle;rounded=0;orthogonalLoop=1;jettySize=auto;html=1;entryX=1;entryY=0.25;entryDx=0;entryDy=0;" edge="1" parent="WIyWlLk6GJQsqaUBKTNV-1" source="h_rzVPMUoWVvJmKpIRI7-101" target="h_rzVPMUoWVvJmKpIRI7-80">
          <mxGeometry relative="1" as="geometry">
            <Array as="points">
              <mxPoint x="490" y="414" />
              <mxPoint x="490" y="240" />
            </Array>
          </mxGeometry>
        </mxCell>
        <mxCell id="h_rzVPMUoWVvJmKpIRI7-101" value="削除処理" style="rounded=1;whiteSpace=wrap;html=1;fontSize=12;glass=0;strokeWidth=1;shadow=0;" vertex="1" parent="WIyWlLk6GJQsqaUBKTNV-1">
          <mxGeometry x="310" y="394" width="120" height="40" as="geometry" />
        </mxCell>
        <mxCell id="h_rzVPMUoWVvJmKpIRI7-102" value="はい" style="text;html=1;align=center;verticalAlign=middle;resizable=0;points=[];autosize=1;strokeColor=none;fillColor=none;" vertex="1" parent="WIyWlLk6GJQsqaUBKTNV-1">
          <mxGeometry x="380" y="355" width="50" height="30" as="geometry" />
        </mxCell>
        <mxCell id="h_rzVPMUoWVvJmKpIRI7-103" value="いいえ" style="text;html=1;align=center;verticalAlign=middle;resizable=0;points=[];autosize=1;strokeColor=none;fillColor=none;" vertex="1" parent="WIyWlLk6GJQsqaUBKTNV-1">
          <mxGeometry x="430" y="305" width="60" height="30" as="geometry" />
        </mxCell>
        <mxCell id="h_rzVPMUoWVvJmKpIRI7-104" value="" style="endArrow=none;html=1;rounded=0;exitX=1;exitY=0.5;exitDx=0;exitDy=0;entryX=1.011;entryY=0.856;entryDx=0;entryDy=0;entryPerimeter=0;" edge="1" parent="WIyWlLk6GJQsqaUBKTNV-1" source="h_rzVPMUoWVvJmKpIRI7-97" target="h_rzVPMUoWVvJmKpIRI7-103">
          <mxGeometry width="50" height="50" relative="1" as="geometry">
            <mxPoint x="410" y="430" as="sourcePoint" />
            <mxPoint x="460" y="380" as="targetPoint" />
          </mxGeometry>
        </mxCell>
        <mxCell id="h_rzVPMUoWVvJmKpIRI7-105" value="削除" style="text;html=1;align=center;verticalAlign=middle;resizable=0;points=[];autosize=1;strokeColor=none;fillColor=none;" vertex="1" parent="WIyWlLk6GJQsqaUBKTNV-1">
          <mxGeometry x="295" y="260" width="50" height="30" as="geometry" />
        </mxCell>
        <mxCell id="h_rzVPMUoWVvJmKpIRI7-106" style="edgeStyle=orthogonalEdgeStyle;rounded=0;orthogonalLoop=1;jettySize=auto;html=1;" edge="1" parent="WIyWlLk6GJQsqaUBKTNV-1" source="h_rzVPMUoWVvJmKpIRI7-107" target="h_rzVPMUoWVvJmKpIRI7-110">
          <mxGeometry relative="1" as="geometry" />
        </mxCell>
        <mxCell id="h_rzVPMUoWVvJmKpIRI7-107" value="本の追加編集画面" style="rounded=1;whiteSpace=wrap;html=1;fontSize=12;glass=0;strokeWidth=1;shadow=0;" vertex="1" parent="WIyWlLk6GJQsqaUBKTNV-1">
          <mxGeometry x="711" y="310" width="120" height="40" as="geometry" />
        </mxCell>
        <mxCell id="h_rzVPMUoWVvJmKpIRI7-108" style="edgeStyle=orthogonalEdgeStyle;rounded=0;orthogonalLoop=1;jettySize=auto;html=1;entryX=0.5;entryY=0;entryDx=0;entryDy=0;" edge="1" parent="WIyWlLk6GJQsqaUBKTNV-1" source="h_rzVPMUoWVvJmKpIRI7-110" target="h_rzVPMUoWVvJmKpIRI7-112">
          <mxGeometry relative="1" as="geometry" />
        </mxCell>
        <mxCell id="h_rzVPMUoWVvJmKpIRI7-109" style="edgeStyle=orthogonalEdgeStyle;rounded=0;orthogonalLoop=1;jettySize=auto;html=1;entryX=1;entryY=0.5;entryDx=0;entryDy=0;" edge="1" parent="WIyWlLk6GJQsqaUBKTNV-1" source="h_rzVPMUoWVvJmKpIRI7-110" target="h_rzVPMUoWVvJmKpIRI7-107">
          <mxGeometry relative="1" as="geometry">
            <Array as="points">
              <mxPoint x="880" y="405" />
              <mxPoint x="880" y="330" />
            </Array>
          </mxGeometry>
        </mxCell>
        <mxCell id="h_rzVPMUoWVvJmKpIRI7-110" value="追加しますか？" style="rounded=1;whiteSpace=wrap;html=1;fontSize=12;glass=0;strokeWidth=1;shadow=0;" vertex="1" parent="WIyWlLk6GJQsqaUBKTNV-1">
          <mxGeometry x="711" y="385" width="120" height="40" as="geometry" />
        </mxCell>
        <mxCell id="h_rzVPMUoWVvJmKpIRI7-111" style="edgeStyle=orthogonalEdgeStyle;rounded=0;orthogonalLoop=1;jettySize=auto;html=1;entryX=1;entryY=0.5;entryDx=0;entryDy=0;" edge="1" parent="WIyWlLk6GJQsqaUBKTNV-1" source="h_rzVPMUoWVvJmKpIRI7-112" target="h_rzVPMUoWVvJmKpIRI7-82">
          <mxGeometry relative="1" as="geometry">
            <Array as="points">
              <mxPoint x="930" y="480" />
              <mxPoint x="930" y="250" />
            </Array>
          </mxGeometry>
        </mxCell>
        <mxCell id="h_rzVPMUoWVvJmKpIRI7-112" value="追加処理" style="rounded=1;whiteSpace=wrap;html=1;fontSize=12;glass=0;strokeWidth=1;shadow=0;" vertex="1" parent="WIyWlLk6GJQsqaUBKTNV-1">
          <mxGeometry x="711" y="460" width="120" height="40" as="geometry" />
        </mxCell>
        <mxCell id="h_rzVPMUoWVvJmKpIRI7-113" value="はい" style="text;html=1;align=center;verticalAlign=middle;resizable=0;points=[];autosize=1;strokeColor=none;fillColor=none;" vertex="1" parent="WIyWlLk6GJQsqaUBKTNV-1">
          <mxGeometry x="780" y="425" width="50" height="30" as="geometry" />
        </mxCell>
        <mxCell id="h_rzVPMUoWVvJmKpIRI7-114" value="いいえ" style="text;html=1;align=center;verticalAlign=middle;resizable=0;points=[];autosize=1;strokeColor=none;fillColor=none;" vertex="1" parent="WIyWlLk6GJQsqaUBKTNV-1">
          <mxGeometry x="820" y="370" width="60" height="30" as="geometry" />
        </mxCell>
        <mxCell id="h_rzVPMUoWVvJmKpIRI7-116" value="滞納者一覧" style="rounded=1;whiteSpace=wrap;html=1;fontSize=12;glass=0;strokeWidth=1;shadow=0;" vertex="1" parent="WIyWlLk6GJQsqaUBKTNV-1">
          <mxGeometry x="525" y="480" width="120" height="40" as="geometry" />
        </mxCell>
        <mxCell id="h_rzVPMUoWVvJmKpIRI7-117" value="編集・削除したい本を選択" style="text;html=1;align=center;verticalAlign=middle;resizable=0;points=[];autosize=1;strokeColor=none;fillColor=none;" vertex="1" parent="WIyWlLk6GJQsqaUBKTNV-1">
          <mxGeometry x="310" y="150" width="170" height="30" as="geometry" />
        </mxCell>
        <mxCell id="h_rzVPMUoWVvJmKpIRI7-118" value="滞納者" style="text;html=1;align=center;verticalAlign=middle;resizable=0;points=[];autosize=1;strokeColor=none;fillColor=none;" vertex="1" parent="WIyWlLk6GJQsqaUBKTNV-1">
          <mxGeometry x="580" y="328" width="60" height="30" as="geometry" />
        </mxCell>
      </root>
    </mxGraphModel>
  </diagram>
</mxfile>
